<svg width="56" height="56" viewBox="0 0 56 56" fill="none" xmlns="http://www.w3.org/2000/svg">
<path d="M28 16.3333L28.3536 15.9798C28.1583 15.7845 27.8417 15.7845 27.6464 15.9798L28 16.3333ZM27.5 39.6667C27.5 39.9428 27.7239 40.1667 28 40.1667C28.2761 40.1667 28.5 39.9428 28.5 39.6667H27.5ZM36.9798 26.0202C37.175 26.2155 37.4916 26.2155 37.6869 26.0202C37.8821 25.825 37.8821 25.5084 37.6869 25.3131L36.9798 26.0202ZM18.3131 25.3131C18.1179 25.5084 18.1179 25.825 18.3131 26.0202C18.5084 26.2155 18.825 26.2155 19.0202 26.0202L18.3131 25.3131ZM27.5 16.3333V39.6667H28.5V16.3333H27.5ZM37.6869 25.3131L28.3536 15.9798L27.6464 16.6869L36.9798 26.0202L37.6869 25.3131ZM27.6464 15.9798L18.3131 25.3131L19.0202 26.0202L28.3536 16.6869L27.6464 15.9798ZM48.5 28C48.5 39.3218 39.3218 48.5 28 48.5V49.5C39.8741 49.5 49.5 39.8741 49.5 28H48.5ZM28 48.5C16.6782 48.5 7.5 39.3218 7.5 28H6.5C6.5 39.8741 16.1259 49.5 28 49.5V48.5ZM7.5 28C7.5 16.6782 16.6782 7.5 28 7.5V6.5C16.1259 6.5 6.5 16.1259 6.5 28H7.5ZM28 7.5C39.3218 7.5 48.5 16.6782 48.5 28H49.5C49.5 16.1259 39.8741 6.5 28 6.5V7.5Z" fill="white"/>
</svg>
