<svg width="24" height="24" viewBox="0 0 24 24" fill="none" xmlns="http://www.w3.org/2000/svg">
<path fill-rule="evenodd" clip-rule="evenodd" d="M6.31419 20.4705L2.71865 21.4133L3.67835 17.909L3.45248 17.5496C2.50152 16.0377 1.99926 14.2901 2 12.4957C2.00208 7.25978 6.26378 3 11.5039 3C14.0414 3.00088 16.4266 3.98992 18.2202 5.78496C20.0138 7.58001 21.001 9.96592 21 12.5034C20.9979 17.7398 16.7363 22 11.5002 22H11.4963C9.79164 21.9993 8.11967 21.5415 6.66109 20.6763L6.31419 20.4705ZM17.2584 15.2211C17.187 15.102 16.9967 15.0305 16.7111 14.8876C16.4255 14.7447 15.0214 14.0541 14.7596 13.9588C14.4978 13.8635 14.3074 13.8159 14.117 14.1017C13.9267 14.3874 13.3793 15.0305 13.2127 15.2211C13.0461 15.4115 12.8795 15.4355 12.594 15.2925C12.3085 15.1496 11.3882 14.8482 10.2974 13.8755C9.44835 13.1185 8.87519 12.1837 8.7086 11.8978C8.54201 11.612 8.69084 11.4576 8.83381 11.3152C8.9623 11.1872 9.11942 10.9817 9.26221 10.815C9.40499 10.6484 9.45259 10.5292 9.54779 10.3388C9.64298 10.1482 9.59539 9.98153 9.52398 9.83863C9.45259 9.69572 8.88144 8.29048 8.64345 7.71885C8.41162 7.16216 8.17618 7.23758 8.00089 7.22878C7.8345 7.22043 7.6439 7.21867 7.45353 7.21867C7.26315 7.21867 6.95373 7.29012 6.69196 7.57594C6.43019 7.86176 5.69241 8.55245 5.69241 9.95757C5.69241 11.3628 6.71574 12.7203 6.85855 12.9108C7.00134 13.1015 8.87236 15.985 11.7373 17.2216C12.4186 17.5158 12.9506 17.6914 13.3654 17.823C14.0495 18.0403 14.6721 18.0096 15.1641 17.9361C15.7129 17.8542 16.8538 17.2455 17.0919 16.5787C17.3298 15.9117 17.3298 15.3401 17.2584 15.2211Z" fill="#17C81E"/>
</svg>
