<svg width="19" height="19" viewBox="0 0 19 19" fill="none" xmlns="http://www.w3.org/2000/svg">
<path fill-rule="evenodd" clip-rule="evenodd" d="M4.31419 17.4705L0.718651 18.4133L1.67835 14.909L1.45248 14.5496C0.501517 13.0377 -0.000736017 11.2901 8.09551e-07 9.49574C0.00207924 4.25978 4.26378 0 9.50391 0C12.0414 0.000879454 14.4266 0.989918 16.2202 2.78496C18.0138 4.58001 19.001 6.96592 19 9.50344C18.9979 14.7398 14.7363 19 9.50018 19H9.49633C7.79164 18.9993 6.11967 18.5415 4.66109 17.6763L4.31419 17.4705ZM15.2584 12.2211C15.187 12.102 14.9967 12.0305 14.7111 11.8876C14.4255 11.7447 13.0214 11.0541 12.7596 10.9588C12.4978 10.8635 12.3074 10.8159 12.117 11.1017C11.9267 11.3874 11.3793 12.0305 11.2127 12.2211C11.0461 12.4115 10.8795 12.4355 10.594 12.2925C10.3085 12.1496 9.38823 11.8482 8.29736 10.8755C7.44835 10.1185 6.87519 9.18365 6.7086 8.89783C6.54201 8.61201 6.69084 8.45756 6.83381 8.3152C6.9623 8.18725 7.11942 7.98168 7.26221 7.81502C7.40499 7.64837 7.45259 7.52921 7.54779 7.33881C7.64298 7.14819 7.59539 6.98153 7.52398 6.83863C7.45259 6.69572 6.88144 5.29048 6.64345 4.71885C6.41162 4.16216 6.17618 4.23758 6.00089 4.22878C5.8345 4.22043 5.6439 4.21867 5.45353 4.21867C5.26315 4.21867 4.95373 4.29012 4.69196 4.57594C4.43019 4.86176 3.69241 5.55245 3.69241 6.95757C3.69241 8.3628 4.71574 9.72033 4.85855 9.91084C5.00134 10.1015 6.87236 12.985 9.73727 14.2216C10.4186 14.5158 10.9506 14.6914 11.3654 14.823C12.0495 15.0403 12.6721 15.0096 13.1641 14.9361C13.7129 14.8542 14.8538 14.2455 15.0919 13.5787C15.3298 12.9117 15.3298 12.3401 15.2584 12.2211Z" fill="white"/>
</svg>
